<svg width="40" height="40" viewBox="0 0 40 40" fill="none" xmlns="http://www.w3.org/2000/svg">
<path d="M19.9975 5.33331C16.4234 5.33386 12.9725 6.63948 10.2931 9.00487C7.61369 11.3703 5.89024 14.6326 5.44651 18.1791C5.00279 21.7255 5.86932 25.312 7.88332 28.2646C9.89732 31.2172 12.9202 33.3328 16.384 34.214C19.8477 35.0951 23.5141 34.681 26.6941 33.0497C29.8742 31.4183 32.3492 28.6819 33.654 25.3545C34.9588 22.0271 35.0038 18.3377 33.7803 14.9795C32.5569 11.6214 30.1494 8.82547 27.01 7.11715M27.01 12.7546V6.27198H33.4926" stroke="white" stroke-opacity="0.7" stroke-linecap="round" stroke-linejoin="round"/>
<path d="M16.6172 25H17.8066V15.1357H16.6035L13.9785 17.0225V18.2598L16.5898 16.4414H16.6172V25ZM23.6992 25.1641C25.75 25.1641 27.2061 23.7832 27.2129 21.8076V21.7939C27.2129 19.9004 25.8457 18.5264 23.9521 18.5264C22.9951 18.5264 22.1748 18.8818 21.71 19.5449H21.6826L22.0176 16.2295H26.6523V15.1357H21.0059L20.5 20.7617H21.5869C21.7168 20.5361 21.874 20.3447 22.0518 20.1807C22.4893 19.7842 23.0635 19.5859 23.7334 19.5859C25.0391 19.5859 25.9756 20.5156 25.9824 21.8145V21.8281C25.9824 23.1543 25.0527 24.084 23.7129 24.084C22.5303 24.084 21.6553 23.3389 21.5322 22.3613L21.5254 22.3066H20.3154L20.3223 22.3818C20.4658 23.9883 21.8125 25.1641 23.6992 25.1641Z" fill="white" fill-opacity="0.7"/>
</svg>
