<svg width="42" height="30" viewBox="0 0 42 30" fill="none" xmlns="http://www.w3.org/2000/svg">
<path d="M9.33313 11.0016C8.01902 11.0016 6.76932 11.2818 5.63534 11.7824C7.21917 8.18886 9.66818 5.14816 12.5185 3.56939C13.4238 3.06783 13.7589 1.91462 13.2661 0.99225C12.7733 0.0708264 11.6403 -0.270196 10.734 0.231363C4.51443 3.67578 0 12.2004 0 20.5008C0 25.7387 4.18684 30 9.33313 30C14.4794 30 18.6663 25.7387 18.6663 20.5008C18.6663 15.2629 14.4803 11.0016 9.33313 11.0016Z" fill="#7AC943"/>
<path d="M32.6669 11.0016C31.3537 11.0016 30.104 11.2818 28.9682 11.7834C30.552 8.18885 33.001 5.14816 35.8523 3.56939C36.7576 3.06783 37.0926 1.91462 36.5999 0.99225C36.108 0.0717763 34.975 -0.269246 34.0678 0.231363C27.8482 3.67578 23.3337 12.2004 23.3337 20.5008C23.3337 25.7387 27.5206 30 32.6669 30C37.8132 30 42 25.7387 42 20.5008C42 15.2629 37.8132 11.0016 32.6669 11.0016Z" fill="#7AC943"/>
</svg>
