<svg width="24" height="24" viewBox="0 0 24 24" fill="none" xmlns="http://www.w3.org/2000/svg">
<path d="M16.8891 20.8H12.0002C10.2597 20.8 8.55833 20.2839 7.11118 19.3169C5.66403 18.35 4.53611 16.9756 3.87006 15.3676C3.20401 13.7596 3.02974 11.9903 3.36929 10.2832C3.70884 8.57619 4.54696 7.00818 5.77766 5.77748C7.00836 4.54677 8.57637 3.70866 10.2834 3.36911C11.9904 3.02956 13.7598 3.20383 15.3678 3.86988C16.9758 4.53593 18.3502 5.66384 19.3171 7.111C20.2841 8.55815 20.8002 10.2595 20.8002 12V13.4667C20.8002 14.115 20.5427 14.7367 20.0842 15.1952C19.6258 15.6536 19.0041 15.9111 18.3557 15.9111C17.7074 15.9111 17.0857 15.6536 16.6273 15.1952C16.1688 14.7367 15.9113 14.115 15.9113 13.4667V12C15.9113 10.9627 15.4992 9.96792 14.7658 9.23444C14.0323 8.50097 13.0375 8.0889 12.0002 8.0889V8.0889C11.2267 8.0889 10.4705 8.31829 9.8273 8.74804C9.18412 9.1778 8.68282 9.78863 8.3868 10.5033C8.09078 11.218 8.01333 12.0044 8.16424 12.763C8.31515 13.5217 8.68765 14.2186 9.23462 14.7656C9.7816 15.3126 10.4785 15.6851 11.2372 15.836C11.9959 15.9869 12.7823 15.9094 13.4969 15.6134C14.2116 15.3174 14.8224 14.8161 15.2522 14.1729C15.6819 13.5297 15.9113 12.7736 15.9113 12" stroke="#116444" stroke-linecap="round" stroke-linejoin="round"/>
</svg>
