<svg width="20" height="20" viewBox="0 0 20 20" fill="none" xmlns="http://www.w3.org/2000/svg">
<path d="M1.45113 10.1339C1.29412 9.84289 1.29412 9.48988 1.45113 9.19887C3.34318 5.69977 6.83828 2.66669 10.3334 2.66669C13.8285 2.66669 17.3236 5.69977 19.2156 9.19987C19.3726 9.49088 19.3726 9.84389 19.2156 10.1349C17.3236 13.634 13.8285 16.6671 10.3334 16.6671C6.83828 16.6671 3.34318 13.634 1.45113 10.1339Z" stroke="#878787" stroke-linecap="round" stroke-linejoin="round"/>
<path d="M12.4547 7.5455C13.6263 8.71711 13.6263 10.6167 12.4547 11.7883C11.2831 12.9599 9.38358 12.9599 8.21197 11.7883C7.04037 10.6167 7.04037 8.71711 8.21197 7.5455C9.38358 6.3739 11.2831 6.3739 12.4547 7.5455Z" stroke="#878787" stroke-linecap="round" stroke-linejoin="round"/>
</svg>
