<svg width="24" height="24" viewBox="0 0 24 24" fill="none" xmlns="http://www.w3.org/2000/svg">
<g clip-path="url(#clip0)">
<path d="M28.8 0H0V28.8H28.8V0Z" fill="#4285F4"/>
<path d="M18.2055 10.9005C18.7051 13.4234 17.606 16.6957 14.8333 17.953C11.203 19.5933 6.77335 18.0529 5.39116 14.0479C3.90073 9.72644 6.84829 5.34673 11.2446 5.022C12.9682 4.89711 14.5086 5.3051 15.8658 6.37088C16.0074 6.47913 16.1323 6.60403 16.3321 6.77888C15.7409 7.33675 15.1831 7.86964 14.5752 8.44417C13.5511 7.56157 12.3604 7.26181 11.0615 7.4783C10.0956 7.6365 9.29626 8.12776 8.63847 8.85216C7.39783 10.2177 7.18134 12.3742 8.13056 14.0062C9.1214 15.7132 10.9699 16.4875 12.9682 16.0296C14.3837 15.7132 15.6244 14.4309 15.7326 13.1153H12.0856V10.9005H18.2055Z" fill="white"/>
</g>
<defs>
<clipPath id="clip0">
<rect width="24" height="24" fill="white"/>
</clipPath>
</defs>
</svg>
