<svg width="24" height="24" viewBox="0 0 24 24" fill="none" xmlns="http://www.w3.org/2000/svg">
<path d="M24 0H0V24H24V0Z" fill="#005FF9"/>
<path d="M16.3047 7.51285C15.2104 6.50428 13.8493 6 12.2239 6C10.5152 6 9.05861 6.57283 7.85665 7.72093C6.6547 8.86903 6.05249 10.2962 6.05249 12.0049C6.05249 13.6426 6.62532 15.0502 7.76853 16.2301C8.91663 17.41 10.4589 18 12.4001 18C13.5703 18 14.7184 17.7601 15.8444 17.2778C16.2116 17.1212 16.3903 16.7001 16.241 16.3305C16.0868 15.9486 15.651 15.7723 15.2716 15.9339C14.2924 16.355 13.3328 16.5655 12.3977 16.5655C10.9093 16.5655 9.75629 16.1126 8.93866 15.2044C8.12348 14.2987 7.71467 13.2338 7.71467 12.0122C7.71467 10.6854 8.15286 9.57895 9.02679 8.69033C9.89827 7.80416 10.973 7.35863 12.2459 7.35863C13.4185 7.35863 14.4099 7.72338 15.2177 8.45288C16.0256 9.18237 16.4295 10.1004 16.4295 11.2069C16.4295 11.9633 16.2435 12.5949 15.8738 13.0967C15.5042 13.601 15.1198 13.8507 14.7208 13.8507C14.5054 13.8507 14.3977 13.7356 14.3977 13.5031C14.3977 13.3146 14.4124 13.0942 14.4393 12.8397L14.8946 9.11628H13.3279L13.2275 9.48103C12.8285 9.15545 12.3903 8.99143 11.9154 8.99143C11.1614 8.99143 10.5152 9.29253 9.97905 9.89229C9.4405 10.492 9.17367 11.2656 9.17367 12.2105C9.17367 13.1334 9.41112 13.88 9.88848 14.4455C10.3659 15.0135 10.9387 15.295 11.6094 15.295C12.2092 15.295 12.7208 15.0428 13.1468 14.541C13.4674 15.0233 13.9399 15.2632 14.5641 15.2632C15.4821 15.2632 16.2753 14.8641 16.9436 14.0636C17.6119 13.2656 17.9472 12.3011 17.9472 11.1726C17.9472 9.74296 17.4013 8.52142 16.3047 7.51285ZM12.6963 13.1457C12.4197 13.5177 12.0892 13.7062 11.7049 13.7062C11.443 13.7062 11.2324 13.5692 11.0733 13.295C10.9118 13.0208 10.831 12.6805 10.831 12.2717C10.831 11.7674 10.9436 11.3611 11.1688 11.0526C11.394 10.7442 11.6731 10.5875 12.006 10.5875C12.2949 10.5875 12.5519 10.7026 12.7771 10.9351C13.0023 11.1677 13.1149 11.4761 13.1149 11.8629C13.1125 12.3452 12.973 12.7711 12.6963 13.1457Z" fill="white"/>
</svg>
