<svg width="30" height="30" viewBox="0 0 30 30" fill="none" xmlns="http://www.w3.org/2000/svg">
<path d="M26.2881 13.8667V20.2C26.2881 21.2078 25.8923 22.1744 25.1878 22.887C24.4834 23.5996 23.528 24 22.5317 24H7.50634C6.5101 24 5.55466 23.5996 4.85021 22.887C4.14576 22.1744 3.75 21.2078 3.75 20.2V10.0667C3.75 9.05885 4.14576 8.0923 4.85021 7.37967C5.55466 6.66703 6.5101 6.26667 7.50634 6.26667H18.7754M21.2796 12.32L16.9234 15.7521C16.3251 16.2236 15.5859 16.475 14.8275 16.4648C14.0691 16.4547 13.3368 16.1837 12.7509 15.6963L7.50634 11.3333M25.138 5.00001C24.7953 4.99919 24.4558 5.06676 24.139 5.19885C23.8222 5.33093 23.5342 5.52494 23.2916 5.76977C23.049 6.01459 22.8565 6.30542 22.7251 6.6256C22.5937 6.94579 22.5261 7.28904 22.526 7.63571C22.526 7.98238 22.5935 8.32566 22.7248 8.64589C22.856 8.96611 23.0484 9.25701 23.291 9.50191C23.5335 9.74682 23.8214 9.94092 24.1382 10.0731C24.455 10.2053 24.7945 10.273 25.1371 10.2723C25.4798 10.2731 25.8202 10.2055 26.137 10.0735C26.4538 9.94136 26.7418 9.74736 26.9844 9.50253C27.2271 9.25771 27.4196 8.96688 27.5509 8.64669C27.6823 8.32651 27.7499 7.98326 27.75 7.63659C27.7501 7.28992 27.6825 6.94664 27.5513 6.62641C27.42 6.30618 27.2276 6.01529 26.9851 5.77038C26.7425 5.52548 26.4546 5.33137 26.1378 5.19918C25.821 5.06699 25.4807 4.99931 25.138 5.00001Z" stroke="#878787" stroke-linecap="round" stroke-linejoin="round"/>
</svg>
