<svg width="24" height="24" viewBox="0 0 24 24" fill="none" xmlns="http://www.w3.org/2000/svg">
<path d="M24 0H0V24H24V0Z" fill="#FF9800"/>
<path d="M11.2618 15.0657C10.0989 14.9444 9.05046 14.658 8.15279 13.9559C8.04141 13.8686 7.92641 13.7844 7.82477 13.6868C7.43186 13.3095 7.39227 12.8773 7.70317 12.4319C7.96914 12.0508 8.41562 11.9488 8.87969 12.1677C8.96955 12.2101 9.05517 12.263 9.13718 12.3199C10.8101 13.4694 13.1083 13.5011 14.7876 12.3716C14.9539 12.244 15.1318 12.14 15.3379 12.0869C15.7386 11.984 16.1124 12.1312 16.3275 12.4819C16.5732 12.8823 16.57 13.2732 16.2673 13.5841C15.8029 14.0607 15.2444 14.4055 14.6239 14.6462C14.0371 14.8737 13.3944 14.9882 12.7583 15.0642C12.8543 15.1687 12.8995 15.2201 12.9596 15.2804C13.8233 16.1482 14.6908 17.0124 15.5517 17.8829C15.845 18.1795 15.9063 18.5473 15.7448 18.8923C15.5682 19.2693 15.1729 19.5174 14.7854 19.4908C14.5398 19.4739 14.3483 19.3516 14.1782 19.1802C13.5264 18.5244 12.8623 17.8806 12.2237 17.2123C12.0379 17.0179 11.9485 17.0547 11.7845 17.2234C11.1287 17.8985 10.4623 18.5632 9.79197 19.2241C9.49096 19.5208 9.13278 19.5743 8.7837 19.4047C8.41263 19.2249 8.17651 18.8461 8.19474 18.4654C8.2073 18.208 8.33393 18.0113 8.51066 17.8349C9.36544 16.9813 10.2179 16.1256 11.0706 15.2707C11.127 15.2138 11.1796 15.1535 11.2618 15.0657Z" fill="white"/>
<path d="M11.9703 12.0925C9.89582 12.0854 8.19475 10.3656 8.20685 8.28784C8.21879 6.18711 9.92096 4.49419 12.0159 4.50001C14.115 4.50566 15.7999 6.22292 15.7894 8.34548C15.7787 10.419 14.0658 12.0997 11.9703 12.0925ZM13.8556 8.29287C13.852 7.26119 13.0304 6.43988 12.0008 6.43894C10.9625 6.43784 10.1335 7.27407 10.1415 8.31516C10.1492 9.34291 10.9779 10.1584 12.0104 10.1546C13.0397 10.151 13.8591 9.32438 13.8556 8.29287Z" fill="white"/>
</svg>
