<svg width="21" height="21" viewBox="0 0 21 21" fill="none" xmlns="http://www.w3.org/2000/svg">
<path d="M5.79425 5.79443H8.05292M5.79425 8.78888H8.80581M5.79425 11.7833H9.55869M15.2054 11.7833H12.5531M15.2054 8.78888H12.1254M9.79996 17.9587L12.376 15.3826C12.7568 15.0019 12.9364 14.4638 12.8603 13.9308L11.4794 4.26898C11.3588 3.42625 10.6367 2.79999 9.78542 2.79999H4.51092C3.56553 2.79999 2.7998 3.56571 2.7998 4.5111V13.0667C2.7998 14.012 3.56553 14.7778 4.51092 14.7778H12.7739M8.70314 14.7778L8.98205 16.731C9.10183 17.5737 9.82392 18.2 10.676 18.2H16.4887C17.4341 18.2 18.1998 17.4343 18.1998 16.4889V7.07777C18.1998 6.13238 17.4341 5.36665 16.4887 5.36665H12.1254" stroke="#878787" stroke-linecap="round" stroke-linejoin="round"/>
</svg>
