<svg width="20" height="20" viewBox="0 0 20 20" fill="none" xmlns="http://www.w3.org/2000/svg">
<path d="M4.62223 4.62223H7.20357M4.62223 8.04446H8.06401M4.62223 11.4667H8.92446M15.3778 11.4667H12.3467M15.3778 8.04446H11.8578M9.20019 18.5243L12.1443 15.5802C12.5794 15.1451 12.7847 14.5301 12.6977 13.9209L11.1196 2.87886C10.9817 1.91575 10.1565 1.20001 9.18357 1.20001H3.15557C2.07512 1.20001 1.20001 2.07512 1.20001 3.15557V12.9333C1.20001 14.0138 2.07512 14.8889 3.15557 14.8889H12.5989M7.94668 14.8889L8.26543 17.1212C8.40232 18.0843 9.22757 18.8 10.2014 18.8H16.8445C17.9249 18.8 18.8 17.9249 18.8 16.8445V6.0889C18.8 5.00846 17.9249 4.13335 16.8445 4.13335H11.8578" stroke="#7AC943" stroke-linecap="round" stroke-linejoin="round"/>
</svg>
