<svg width="20" height="20" viewBox="0 0 20 20" fill="none" xmlns="http://www.w3.org/2000/svg">
<path d="M12.8519 7.81476L10.4075 5.37031M17.3334 14.7407L16.442 15.6321C15.9692 16.1047 15.3281 16.3702 14.6596 16.3702C13.9911 16.3702 13.35 16.1047 12.8772 15.6321C12.4038 15.1604 11.7627 14.8955 11.0944 14.8955C10.4261 14.8955 9.785 15.1604 9.31156 15.6321M14.383 3.83927C14.707 4.1635 14.889 4.60312 14.889 5.0615C14.889 5.51987 14.707 5.95949 14.383 6.28372L6.24541 14.4213C6.03659 14.6301 5.77495 14.7782 5.48845 14.8499L2.66675 15.5555L3.37238 12.7338C3.44402 12.4473 3.59216 12.1857 3.80097 11.9768L11.9393 3.83927C12.2634 3.51531 12.7029 3.33331 13.1612 3.33331C13.6194 3.33331 14.0589 3.51531 14.383 3.83927Z" stroke="#878787" stroke-linecap="round" stroke-linejoin="round"/>
</svg>
