<svg width="24" height="24" viewBox="0 0 24 24" fill="none" xmlns="http://www.w3.org/2000/svg">
<path d="M10.7203 20.8002L12 19.4968M12 19.4968L10.7203 18.1934M12 19.4968C6.69794 19.4968 2.40002 17.7945 2.40002 15.6942C2.40002 15.0685 2.7917 14.4818 3.46658 13.9616M20.5335 13.9616C21.2083 14.4818 21.6 15.0685 21.6 15.6942C21.6 17.2939 19.104 18.6598 15.5731 19.2221M9.69602 3.2002V5.3122C9.69602 5.70037 9.95426 6.0162 10.272 6.0162H13.728C14.0458 6.0162 14.304 5.70037 14.304 5.3122V3.2002M6.24002 14.9335V5.54686C6.24002 4.25033 7.27106 3.2002 8.54402 3.2002H15.456C16.729 3.2002 17.76 4.25033 17.76 5.54686V14.9335" stroke="#778E18" stroke-linecap="round" stroke-linejoin="round"/>
</svg>
