<svg width="24" height="24" viewBox="0 0 24 24" fill="none" xmlns="http://www.w3.org/2000/svg">
<path d="M10.6668 5.60002H13.3334M16.2668 21.6H7.73343C6.55476 21.6 5.6001 20.6454 5.6001 19.4667V4.53336C5.6001 3.35469 6.55476 2.40002 7.73343 2.40002H16.2668C17.4454 2.40002 18.4001 3.35469 18.4001 4.53336V19.4667C18.4001 20.6454 17.4454 21.6 16.2668 21.6ZM11.999 17.6C11.8518 17.6 11.7324 17.7195 11.7334 17.8667C11.7334 18.0139 11.8529 18.1334 12.0001 18.1334C12.1473 18.1334 12.2668 18.0139 12.2668 17.8667C12.2668 17.7195 12.1473 17.6 11.999 17.6Z" stroke="#116444" stroke-linecap="round" stroke-linejoin="round"/>
</svg>
