<svg width="24" height="24" viewBox="0 0 24 24" fill="none" xmlns="http://www.w3.org/2000/svg">
<path d="M24 0H0V24H24V0Z" fill="#4FABF1"/>
<path d="M19.5 7.06453C19.0031 7.2847 18.47 7.43401 17.9098 7.50067C18.4818 7.15817 18.9196 6.6149 19.1271 5.96955C18.5906 6.28673 17.9984 6.51705 17.3674 6.6419C16.8621 6.10285 16.1433 5.76709 15.3461 5.76709C13.8167 5.76709 12.5766 7.00717 12.5766 8.53576C12.5766 8.75256 12.6011 8.9643 12.6483 9.16678C10.347 9.05119 8.30636 7.94862 6.94059 6.27323C6.70185 6.68154 6.56603 7.15731 6.56603 7.66517C6.56603 8.62603 7.05532 9.47383 7.79768 9.96985C7.34382 9.95467 6.91696 9.82982 6.54326 9.62229V9.65688C6.54326 10.9982 7.49821 12.1176 8.76443 12.3724C8.53244 12.4348 8.28781 12.4694 8.03473 12.4694C7.8559 12.4694 7.68296 12.4517 7.51339 12.4179C7.866 13.5188 8.88845 14.3194 10.0999 14.3413C9.15249 15.0837 7.95796 15.5249 6.66053 15.5249C6.43699 15.5249 6.21679 15.5114 6 15.4869C7.22574 16.274 8.68094 16.7329 10.245 16.7329C15.3394 16.7329 18.1241 12.5133 18.1241 8.85381L18.1148 8.49528C18.6589 8.1072 19.1296 7.61961 19.5 7.06453Z" fill="white"/>
</svg>
