<svg width="30" height="30" viewBox="0 0 30 30" fill="none" xmlns="http://www.w3.org/2000/svg">
<path d="M25.5413 8.8105C25.2894 7.7061 24.5436 6.8349 23.5954 6.5357C21.8805 6 15 6 15 6C15 6 8.1228 6 6.4046 6.5357C5.4597 6.8305 4.7139 7.7017 4.4587 8.8105C4 10.8147 4 15.0002 4 15.0002C4 15.0002 4 19.1857 4.4587 21.1899C4.7106 22.2943 5.4564 23.1655 6.4046 23.4647C8.1228 24.0004 15 24.0004 15 24.0004C15 24.0004 21.8805 24.0004 23.5954 23.4647C24.5403 23.1699 25.2861 22.2987 25.5413 21.1899C26 19.1857 26 15.0002 26 15.0002C26 15.0002 26 10.8147 25.5413 8.8105Z" stroke="#878787" stroke-linecap="round" stroke-linejoin="round"/>
<path d="M12.8022 18.3002L18.5178 15.0002L12.8022 11.7002V18.3002Z" stroke="#878787" stroke-linecap="round" stroke-linejoin="round"/>
</svg>
